<svg id="left-top.svg" xmlns="http://www.w3.org/2000/svg" width="359.438" height="436.156" viewBox="0 0 359.438 436.156">
  <defs>
    <style>
      .cls-1 {
        fill: none;
        stroke: #fff;
        stroke-width: 4px;
        fill-rule: evenodd;
      }
    </style>
  </defs>
  <path id="シェイプ_6" data-name="シェイプ 6" class="cls-1" d="M15,468s-58.328-94.719-6-247S257,114,257,114" transform="translate(0 -33.844)"/>
  <path id="シェイプ_7" data-name="シェイプ 7" class="cls-1" d="M220.819,112.614s41.43-23.233,73.121-19.242,63.5,19.026,63.5,19.026-16.529,15.667-61.362,22.356C275.722,137.791,220.819,112.614,220.819,112.614Z" transform="translate(0 -33.844)"/>
  <path id="シェイプ_8" data-name="シェイプ 8" class="cls-1" d="M155,110s31.465,11.074,51,21,25,16,25,16" transform="translate(0 -33.844)"/>
  <path id="シェイプ_9" data-name="シェイプ 9" class="cls-1" d="M270,175s-24.04,1.376-43-10c-18.535-11.121-32-35-32-35s31.416-4.151,50,7C263.913,148.348,270,175,270,175Z" transform="translate(0 -33.844)"/>
  <path id="シェイプ_10" data-name="シェイプ 10" class="cls-1" d="M114,118a181.456,181.456,0,0,1,25-28c11.5-10.17,27-18,27-18" transform="translate(0 -33.844)"/>
  <path id="シェイプ_11" data-name="シェイプ 11" class="cls-1" d="M212,36s-28.2-2.3-45,10c-18.608,13.629-26,42-26,42s27.906,1.944,47-10C213.368,62.132,212,36,212,36Z" transform="translate(0 -33.844)"/>
  <path id="シェイプ_12" data-name="シェイプ 12" class="cls-1" d="M56,150s33.352-4.026,56,0c22.35,3.973,34,16,34,16" transform="translate(0 -33.844)"/>
  <path id="シェイプ_13" data-name="シェイプ 13" class="cls-1" d="M187,210s-27.127,6.378-46-7c-20.555-14.571-33-52-33-52s32.484-7.252,54,8C179.584,171.465,187,210,187,210Z" transform="translate(0 -33.844)"/>
  <path id="シェイプ_14" data-name="シェイプ 14" class="cls-1" d="M33,172s6.716-32.884,23-58c12.79-19.726,10-11,10-11" transform="translate(0 -33.844)"/>
  <path id="シェイプ_16" data-name="シェイプ 16" class="cls-1" d="M9,227s22.306-13.859,41-19c21.154-5.817,17,1,17,1" transform="translate(0 -33.844)"/>
  <path id="シェイプ_17" data-name="シェイプ 17" class="cls-1" d="M125,221s-27.375,20.212-48,14c-20.874-6.287-39-23-39-23-0.5-.056,21.218-33.478,40.558-17.949C107.063,216.941,125,221,125,221Z" transform="translate(0 -33.844)"/>
  <path id="シェイプ_15" data-name="シェイプ 15" class="cls-1" d="M124,65S73.906,66.859,58,84c-20.727,24.34-15,52-15,52l5-2s16.579-16.043,37-25C112.46,96.955,124,65,124,65Z" transform="translate(0 -33.844)"/>
  <path id="シェイプ_18" data-name="シェイプ 18" class="cls-1" d="M-4,262s-18.15-15.856-17-40c1.336-28.061,11-37,11-37" transform="translate(0 -33.844)"/>
  <path id="シェイプ_19" data-name="シェイプ 19" class="cls-1" d="M19,125s-30.943,12.945-38,32c-7.9,21.318,2,58,2,58s21.253-25.084,29-46C19.236,149.463,19,125,19,125Z" transform="translate(0 -33.844)"/>
  <path id="シェイプ_20" data-name="シェイプ 20" class="cls-1" d="M-12,326s10.022-20.277,24-34c13.515-13.269,15-11,15-11" transform="translate(0 -33.844)"/>
  <path id="シェイプ_22" data-name="シェイプ 22" class="cls-1" d="M-34,308s-1.53,20.912,4,37c5.469,15.911,18,27,18,27" transform="translate(0 -33.844)"/>
  <path id="シェイプ_23" data-name="シェイプ 23" class="cls-1" d="M-30,260s-18.816,9.527-21,27c-2.312,18.5,12,45,12,45s12.567,4.465,15-15C-21.97,300.758-30,260-30,260Z" transform="translate(0 -33.844)"/>
  <path id="シェイプ_24" data-name="シェイプ 24" class="cls-1" d="M-3,414a125.632,125.632,0,0,0,23-32c8.853-17.473,5-19,5-19" transform="translate(0 -33.844)"/>
  <path id="シェイプ_25" data-name="シェイプ 25" class="cls-1" d="M37,316s-19.787,10.037-23,28c-7.942,44.4,4,46,4,46s12.32,6.677,24-35C45.309,343.2,37,316,37,316Z" transform="translate(0 -33.844)"/>
  <path id="シェイプ_21" data-name="シェイプ 21" class="cls-1" d="M10,296s7.481-36.651,24-43c25.878-9.946,37,2,37,2s-4.941,13.865-26,33C32.463,299.391,10,296,10,296Z" transform="translate(0 -33.844)"/>
</svg>
