<svg id="right-bottom.svg" xmlns="http://www.w3.org/2000/svg" width="395" height="225" viewBox="0 0 395 225">
  <defs>
    <style>
      .cls-1 {
        fill: none;
        stroke: #fff;
        stroke-width: 4px;
        fill-rule: evenodd;
      }
    </style>
  </defs>
  <path id="シェイプ_6" data-name="シェイプ 6" class="cls-1" d="M1349.67-209s58.37,94.685,6.01,246.911-248.17,106.961-248.17,106.961" transform="translate(-1005)"/>
  <path id="シェイプ_7" data-name="シェイプ 7" class="cls-1" d="M1143.71,146.257s-41.46,23.225-73.17,19.235S1007,146.474,1007,146.474s16.54-15.662,61.4-22.348C1088.77,121.09,1143.71,146.257,1143.71,146.257Z" transform="translate(-1005)"/>
  <path id="シェイプ_8" data-name="シェイプ 8" class="cls-1" d="M1209.58,148.871s-31.49-11.071-51.04-20.993-25.02-15.994-25.02-15.994" transform="translate(-1005)"/>
  <path id="シェイプ_9" data-name="シェイプ 9" class="cls-1" d="M1094.5,83.894s24.05-1.375,43.03,10c18.55,11.118,32.02,34.988,32.02,34.988s-31.44,4.149-50.04-7C1100.59,110.537,1094.5,83.894,1094.5,83.894Z" transform="translate(-1005)"/>
  <path id="シェイプ_10" data-name="シェイプ 10" class="cls-1" d="M1250.61,140.873a181.7,181.7,0,0,1-25.02,27.99c-11.51,10.167-27.02,17.994-27.02,17.994" transform="translate(-1005)"/>
  <path id="シェイプ_11" data-name="シェイプ 11" class="cls-1" d="M1152.54,222.844s28.22,2.3,45.03-10c18.62-13.623,26.02-41.984,26.02-41.984s-27.93-1.944-47.04,10C1151.17,196.722,1152.54,222.844,1152.54,222.844Z" transform="translate(-1005)"/>
  <path id="シェイプ_12" data-name="シェイプ 12" class="cls-1" d="M1308.64,108.885s-33.37,4.025-56.03,0c-22.37-3.972-34.03-15.994-34.03-15.994" transform="translate(-1005)"/>
  <path id="シェイプ_13" data-name="シェイプ 13" class="cls-1" d="M1177.55,48.907s27.15-6.376,46.04,7c20.57,14.566,33.02,51.981,33.02,51.981s-32.51,7.25-54.04-8C1184.98,87.428,1177.55,48.907,1177.55,48.907Z" transform="translate(-1005)"/>
  <path id="シェイプ_14" data-name="シェイプ 14" class="cls-1" d="M1331.66,86.893s-6.72,32.872-23.02,57.979c-12.79,19.719-10,11-10,11" transform="translate(-1005)"/>
  <path id="シェイプ_16" data-name="シェイプ 16" class="cls-1" d="M1355.68,31.913s-22.32,13.854-41.03,18.993c-21.17,5.815-17.01-1-17.01-1" transform="translate(-1005)"/>
  <path id="シェイプ_17" data-name="シェイプ 17" class="cls-1" d="M1239.6,37.911s27.39-20.2,48.03-13.995c20.89,6.285,39.03,22.992,39.03,22.992,0.5,0.056-21.24,33.466-40.59,17.942C1257.55,41.969,1239.6,37.911,1239.6,37.911Z" transform="translate(-1005)"/>
  <path id="シェイプ_15" data-name="シェイプ 15" class="cls-1" d="M1240.6,193.854s50.13-1.858,66.04-18.993c20.74-24.331,15.01-51.981,15.01-51.981l-5,2s-16.59,16.037-37.03,24.991C1252.15,161.91,1240.6,193.854,1240.6,193.854Z" transform="translate(-1005)"/>
  <path id="シェイプ_18" data-name="シェイプ 18" class="cls-1" d="M1368.69-3.074s18.16,15.851,17.01,39.986c-1.34,28.051-11.01,36.987-11.01,36.987" transform="translate(-1005)"/>
  <path id="シェイプ_19" data-name="シェイプ 19" class="cls-1" d="M1345.67,133.876s30.96-12.941,38.03-31.988c7.9-21.311-2-57.98-2-57.98s-21.27,25.075-29.02,45.983C1345.43,109.422,1345.67,133.876,1345.67,133.876Z" transform="translate(-1005)"/>
  <path id="シェイプ_20" data-name="シェイプ 20" class="cls-1" d="M1376.69-67.051s-10.03,20.269-24.01,33.988c-13.53,13.264-15.02,11-15.02,11" transform="translate(-1005)"/>
  <path id="シェイプ_22" data-name="シェイプ 22" class="cls-1" d="M1398.71-49.058s1.53-20.9-4.01-36.987c-5.47-15.9-18.01-26.99-18.01-26.99" transform="translate(-1005)"/>
  <path id="シェイプ_23" data-name="シェイプ 23" class="cls-1" d="M1394.7-1.075s18.83-9.524,21.02-26.99c2.31-18.491-12.01-44.984-12.01-44.984s-12.58-4.463-15.01,14.995C1386.67-41.819,1394.7-1.075,1394.7-1.075Z" transform="translate(-1005)"/>
  <path id="シェイプ_24" data-name="シェイプ 24" class="cls-1" d="M1367.69-155.02a125.681,125.681,0,0,0-23.02,31.989c-8.86,17.467-5,18.993-5,18.993" transform="translate(-1005)"/>
  <path id="シェイプ_25" data-name="シェイプ 25" class="cls-1" d="M1327.66-57.055s19.8-10.034,23.01-27.99c7.95-44.389-4-45.983-4-45.983s-12.33-6.675-24.02,34.987C1319.34-84.24,1327.66-57.055,1327.66-57.055Z" transform="translate(-1005)"/>
  <path id="シェイプ_21" data-name="シェイプ 21" class="cls-1" d="M1354.68-37.062s-7.49,36.638-24.02,42.984c-25.9,9.942-37.03-2-37.03-2s4.95-13.86,26.02-32.988C1332.2-40.452,1354.68-37.062,1354.68-37.062Z" transform="translate(-1005)"/>
</svg>
