<svg xmlns="http://www.w3.org/2000/svg" width="332.782" height="671.281" viewBox="0 0 332.782 671.281">
  <defs>
    <style>
      .cls-1 {
        fill: gray;
        fill-rule: evenodd;
      }
    </style>
  </defs>
  <path id="black-cat2.svg" class="cls-1" d="M462.915,341.959c-0.264-14.85,2.888-47.682,9.912-54.454l2.974,1.981v0.99c-3.826,15.327-7.573,32.287-8.921,51.483a187.512,187.512,0,0,1,36.674,2.971c1.538-16.158,4.753-31.955,6.939-48.514h3.965v1.98c4.039,14.482-15.345,43.245-1.983,50.494l2.974-1.98c4.139-15.04,7.678-28.349,9.912-46.534l1.982-.99,2.974,1.981c-0.266,18.314-6.68,32.494-10.9,46.533h0.991l53.525-17.822,0.991,0.991v3.96c-13.671,15.781-11.442,36.457-31.718,46.533,2.44,6.181,2.061,19.077,2.973,26.733,26.414-2.113,56.565,6.334,56.5,33.662h-0.991c-2.911-3.469-1.455-8.318-3.965-12.871-7.328-13.291-32.652-19.89-49.561-17.821q0.5,1.98.992,3.96c16.723,4.176,37.054,17.406,40.639,34.653q-0.991.988-1.982,1.98l-1.983-.99c-4.054-16.492-19.6-29.662-36.674-32.673-0.408,16.334,24.891,22.34,25.771,45.543l-2.974-.989c-4.2-16.964-12.97-25.589-23.789-35.643L537.255,438l-7.929,3.96c15.938,26.475,25.111,56.8,16.85,92.077h0.991L576.9,521.163c14.121-9.135,35.263-34.715,51.543-2.971-8.267,37.1-38.042,14.29-62.446,29.7-28.937,18.276-48.336,48.034-55.507,88.117-2.759,15.416,6.209,35.8,2.973,46.533-2.725,9.036-17.758,18.178-13.877,30.692,4.825,10.663,17.215,8.279,22.8,16.831,2.563,4.14,1.485,9.7.991,14.852-2.563,26.782-38.41,24.332-56.5,10.89,1.318,3.3,4.839,10.484.991,12.871H370.733c-14.669,47.743-9.955,121.534,23.789,144.551,8.915,6.082,18.043,5.9,30.727,8.911,10.9,2.588,32.195,5.7,45.595,1.98,60.686-16.844-2.468-72.5,22.8-89.107,5.861-4.966,17.808-2.415,25.772-.99,58.059,58.355-11.658,102.957-68.394,116.829H427.231l-19.824,4.95c-9.687-1.85-26.37-9.764-37.665-12.871-2.559-10.8-9.473-9.451-12.886-16.831l-26.763-73.266c-5.469-21.716-8.518-60.29-3.965-87.126q1.983-13.86,3.965-27.722c-8.049-50.954-23.6-91.322-32.71-140.591-12.715-68.779,47.662-128.517,108.042-103.957-4.2-28.113,6.947-40.784,15.859-57.425l-6.938-9.9c-26.547,5.264-39.666,26.679-57.49,40.593h-2.974c4.13-17.736,39.076-38.841,57.49-42.574-1.072-5.554-3.183-9.682-8.921-10.89-15.583,4.67-28.3,6.746-39.648,14.851-7.093,5.064-9.421,14.139-18.833,16.831l-0.991-.99v-2.97c12.831-9.29,22.9-21.039,39.648-26.732,9.417-3.2,23.7-1.179,27.754-9.9H408.4c-27.024-14.559-63.22,4.616-73.35,20.792h-3.965v-2.971c15.536-22.365,47.2-26.523,80.288-20.791l4.956-29.7c-10.685-8.745-27.084-35.556-21.806-55.444h0.991c21.758,3.59,25.792,26.118,54.516,26.732-2.677-13.078-8.644-53.124,4.956-58.415v5.941c-6.823,13.881-5.2,37-.991,52.474Zm0,405.931v4.95l3.965,1.98Q464.9,751.355,462.915,747.89Z" transform="translate(-295.656 -284.531)"/>
</svg>
