<svg id="colorist.svg" xmlns="http://www.w3.org/2000/svg" viewBox="0 0 104 104"><defs><style>.cls-1{fill:none;stroke:#c9edc6;stroke-width:4px;}.cls-2{fill:#c9edc6;fill-rule:evenodd;}</style></defs><rect id="長方形_5" data-name="長方形 5" class="cls-1" x="2" y="2" width="100" height="100" rx="9"/><path id="楕円形_3" data-name="楕円形 3" class="cls-2" d="M52,22c4.59,0,8.31,3.36,8.31,7.5S56.54,37,52,37s-8.32-3.36-8.32-7.5S47.35,22,52,22Z"/><path id="楕円形_3_のコピー" data-name="楕円形 3 のコピー" class="cls-2" d="M74.68,32.5c4.6,0,8.32,3.36,8.32,7.5s-3.72,7.5-8.32,7.5-8.32-3.36-8.32-7.5S70.09,32.5,74.68,32.5Z"/><path id="楕円形_3_のコピー_2" data-name="楕円形 3 のコピー 2" class="cls-2" d="M74.68,56.5c4.6,0,8.32,3.19,8.32,7.13s-3.72,7.13-8.32,7.13-8.32-3.19-8.32-7.13S70.09,56.5,74.68,56.5Z"/><path id="楕円形_3_のコピー_3" data-name="楕円形 3 のコピー 3" class="cls-2" d="M52.5,68c4.59,0,8.32,3.36,8.32,7.5S57.09,83,52.5,83s-8.32-3.36-8.32-7.5S47.91,68,52.5,68Z"/><path id="楕円形_3_のコピー_4" data-name="楕円形 3 のコピー 4" class="cls-2" d="M31.43,32.5c4.59,0,8.31,3.36,8.31,7.5S36,47.5,31.43,47.5s-8.32-3.36-8.32-7.5S26.83,32.5,31.43,32.5Z"/><path id="楕円形_3_のコピー_5" data-name="楕円形 3 のコピー 5" class="cls-2" d="M30.32,56.5c4.59,0,8.32,3.36,8.32,7.5s-3.73,7.5-8.32,7.5S22,68.14,22,64,25.72,56.5,30.32,56.5Z"/></svg>