<svg id="python.svg" xmlns="http://www.w3.org/2000/svg" viewBox="0 0 104 104"><defs><style>.cls-1,.cls-3{fill:none;}.cls-1{stroke:#c9edc6;stroke-width:4px;}.cls-2{fill:#c9edc6;}.cls-3{stroke:#fff;}.cls-4{fill:#fff;fill-rule:evenodd;}</style></defs><rect id="ベース" class="cls-1" x="2" y="2" width="100" height="100" rx="9"/><path class="cls-2" d="M81.67,48.57a9,9,0,0,0-9-9h-8.5v-8.5c0-8.89-9.23-9.56-16-9-9.78.15-9.32,10.41-9,17.5h-8.5c-8.87,0-9.57,9.23-9,16a9,9,0,0,0,8.77,9h8.73v8.5a9,9,0,0,0,9,9c6.78.59,16-.14,16-9v-8.5h8.5C81.55,64.56,82.25,55.35,81.67,48.57Z"/><path id="シェイプ_3" data-name="シェイプ 3" class="cls-3" d="M66,65H53"/><path id="目" class="cls-4" d="M46,30a2,2,0,1,1-2,2A2,2,0,0,1,46,30ZM56,72a2,2,0,1,1-2,2A2,2,0,0,1,56,72Z"/><path class="cls-3" d="M38.55,64.5s.43-6.39.43-8.82c0-2.24.36-4,3.26-4.12,1.7.36,13.64.17,17,.44,3.69.3,5.28-.29,5.28-2.75V39.5"/><line class="cls-3" x1="38.98" y1="39.13" x2="51.5" y2="39.13"/></svg>